<svg width="160" height="38" viewBox="0 0 160 38" fill="none" xmlns="http://www.w3.org/2000/svg">
<path d="M52.0636 14.2368L49.6254 6.03942H49.5693C49.5787 6.22625 49.5927 6.49249 49.6114 6.83814C49.6301 7.17449 49.6441 7.54345 49.6535 7.94521C49.6722 8.33747 49.6815 8.70652 49.6815 9.05218V14.2368H48V4.23185H50.5783L52.9604 12.0928H53.0025L55.4266 4.23185H58.0189V14.2368H56.2534V8.96807C56.2534 8.65042 56.2581 8.30486 56.2674 7.93111C56.2767 7.54815 56.2908 7.1885 56.3094 6.85215C56.3281 6.50659 56.3421 6.24035 56.3515 6.05352H56.2954L53.7872 14.2368H52.0636ZM67.3205 10.8469C67.3205 11.5105 67.1816 12.1114 66.9035 12.6495C66.6345 13.1785 66.222 13.6 65.6659 13.9139C65.1189 14.2188 64.4329 14.3713 63.6079 14.3713C62.4241 14.3713 61.5183 14.0485 60.8905 13.4028C60.2718 12.7481 59.9624 11.8871 59.9624 10.82V4.63207H61.7649V10.6451C61.7649 11.4253 61.9218 11.9992 62.2357 12.3669C62.5496 12.7256 63.0204 12.905 63.6481 12.905C64.0876 12.905 64.4419 12.8198 64.7109 12.6495C64.9889 12.4791 65.1906 12.2235 65.3163 11.8827C65.4418 11.5329 65.5045 11.1159 65.5045 10.6317V4.63207H67.3205V10.8469ZM74.6835 14.2368L73.9436 11.6943H70.6613L69.9215 14.2368H67.9843L71.2129 4.59169H73.3786L76.6205 14.2368H74.6835ZM72.7463 7.73949C72.7105 7.59601 72.6612 7.42558 72.5984 7.2283C72.5446 7.022 72.4907 6.81129 72.4369 6.59607C72.3922 6.38085 72.3473 6.17907 72.3025 5.9907C72.2666 6.20592 72.2217 6.42114 72.1679 6.63635C72.1141 6.84265 72.0603 7.03993 72.0065 7.2283C71.9616 7.41666 71.9168 7.58699 71.872 7.73949L71.1187 10.2147H73.5131L72.7463 7.73949ZM83.4809 4.23185C84.3217 4.23185 85.0176 4.31596 85.5687 4.48408C86.1202 4.64291 86.5259 4.90445 86.7877 5.2688C87.0592 5.63306 87.1944 6.12353 87.1944 6.74013C87.1944 7.12309 87.1292 7.46874 86.9978 7.77699C86.8673 8.08533 86.6803 8.33747 86.4377 8.5337C86.2037 8.72983 85.9332 8.86065 85.6244 8.92606V8.99607C85.9428 9.06148 86.2411 9.1829 86.5221 9.36043C86.8021 9.52855 87.0265 9.77619 87.1944 10.1031C87.3622 10.4207 87.4466 10.8411 87.4466 11.3642C87.4466 11.9714 87.3066 12.4899 87.0265 12.9196C86.7551 13.3493 86.3629 13.6763 85.8488 13.9005C85.3347 14.1246 84.7232 14.2368 84.0134 14.2368H80.5383V4.23185H83.4809ZM83.6491 8.30947C84.2563 8.30947 84.6766 8.19735 84.9102 7.97321C85.1437 7.74898 85.2609 7.41733 85.2609 6.97827C85.2609 6.5299 85.1204 6.20764 84.8401 6.01142C84.5691 5.81529 84.1347 5.71717 83.5369 5.71717H82.416V8.30947H83.6491ZM82.416 9.75278V12.7374H83.7892C84.4244 12.7374 84.8634 12.5973 85.1064 12.3171C85.3587 12.0368 85.4843 11.6632 85.4843 11.1961C85.4843 10.8972 85.4287 10.6402 85.3165 10.4254C85.2139 10.2106 85.0363 10.047 84.7841 9.93491C84.5319 9.81349 84.1815 9.75278 83.7332 9.75278H82.416ZM94.5381 14.2368L93.7977 11.6943H90.5157L89.7762 14.2368H87.8389L91.0671 4.59169H93.2328L96.4754 14.2368H94.5381ZM92.6007 7.73949C92.5652 7.59601 92.5154 7.42558 92.453 7.2283C92.3993 7.022 92.3456 6.81129 92.2919 6.59607C92.2468 6.38085 92.2017 6.17907 92.1567 5.9907C92.1212 6.20592 92.0761 6.42114 92.0224 6.63635C91.9687 6.84265 91.915 7.03993 91.8613 7.2283C91.8162 7.41666 91.7711 7.58699 91.726 7.73949L90.9732 10.2147H93.368L92.6007 7.73949ZM94.7126 1.75332C94.5966 1.87887 94.4441 2.03133 94.2551 2.21068C94.0758 2.39004 93.8744 2.57838 93.6499 2.77567C93.4351 2.97296 93.2241 3.16132 93.0179 3.34067C92.8117 3.511 92.6276 3.65458 92.4664 3.77111H91.2829V3.59627C91.4258 3.42584 91.5831 3.22855 91.7529 3.00432C91.9236 2.77118 92.0982 2.53353 92.2775 2.29139C92.4578 2.04029 92.6007 1.81609 92.7081 1.6188H94.7126V1.75332ZM105.214 14.2368H102.941L98.8913 6.70368H98.8376C98.8462 6.90096 98.8549 7.11167 98.8645 7.33591C98.8731 7.55112 98.8817 7.77536 98.8913 8.00851C98.9086 8.23274 98.922 8.46139 98.9316 8.69454C98.9402 8.92769 98.945 9.16094 98.945 9.39409V14.2368H97.3309V4.63207H99.5905L103.626 12.1114H103.68C103.671 11.932 103.662 11.7392 103.653 11.5329C103.645 11.3177 103.635 11.098 103.626 10.8738C103.618 10.6496 103.608 10.4209 103.599 10.1877C103.59 9.95458 103.586 9.73034 103.586 9.51513V4.63207H105.214V14.2368ZM113.278 4.23185C114.259 4.23185 115.1 4.41868 115.8 4.79233C116.511 5.16599 117.056 5.71717 117.44 6.44578C117.823 7.16509 118.014 8.06193 118.014 9.13619C118.014 10.2573 117.813 11.1961 117.412 11.9527C117.019 12.7094 116.449 13.2793 115.702 13.6623C114.955 14.0452 114.063 14.2368 113.026 14.2368H110.293V10.033H109.396V8.5477H110.293V4.23185H113.278ZM113.264 5.71717H112.171V8.5477H113.936V10.033H112.171V12.7374H113.054C114.063 12.7374 114.815 12.4385 115.31 11.8406C115.805 11.2428 116.052 10.3553 116.052 9.1783C116.052 8.39358 115.94 7.74428 115.716 7.2305C115.502 6.71672 115.188 6.33837 114.778 6.09553C114.366 5.84329 113.862 5.71717 113.264 5.71717ZM124.132 3.77111C123.926 3.61871 123.711 3.45279 123.487 3.27344C123.272 3.08508 123.052 2.88779 122.828 2.68151C122.604 2.88779 122.384 3.08508 122.169 3.27344C121.953 3.45279 121.738 3.61871 121.523 3.77111H120.582V3.60969C120.725 3.43926 120.872 3.251 121.025 3.0447C121.177 2.8384 121.33 2.63218 121.482 2.42591C121.644 2.21068 121.787 2.00441 121.913 1.80712H123.756C123.891 2.00441 124.035 2.21068 124.187 2.42591C124.34 2.63218 124.491 2.8384 124.644 3.0447C124.796 3.251 124.945 3.43926 125.088 3.60969V3.77111H124.132ZM124.536 2.33175C124.707 2.12549 124.855 1.92371 124.98 1.72641C125.114 1.52911 125.25 1.28698 125.384 1H126.824V1.13452C126.644 1.39459 126.428 1.64121 126.177 1.87438C125.927 2.09859 125.684 2.30485 125.451 2.49317H124.536V2.33175ZM125.195 14.2368L124.456 11.6943H121.174L120.433 14.2368H118.497L121.725 4.59169H123.891L127.132 14.2368H125.195ZM123.259 7.73949C123.222 7.59601 123.173 7.42558 123.11 7.2283C123.056 7.022 123.003 6.81129 122.949 6.59607C122.904 6.38085 122.86 6.17907 122.815 5.9907C122.778 6.20592 122.734 6.42114 122.68 6.63635C122.627 6.84265 122.572 7.03993 122.518 7.2283C122.474 7.41666 122.429 7.58699 122.384 7.73949L121.631 10.2147H124.025L123.259 7.73949ZM130.511 14.2368H128.696V6.08488H126.193V4.63207H133V6.08488H130.511V14.2368Z" fill="#2B2A25"/>
<path d="M77.3887 17.6805L75.4549 23.6835H74.2022L72.2769 17.6805H73.4792L74.53 21.3545C74.5581 21.4554 74.5917 21.5872 74.6309 21.7498C74.6758 21.9067 74.715 22.0692 74.7487 22.2374C74.7879 22.3999 74.8159 22.5456 74.8327 22.6745C74.8496 22.5456 74.8747 22.3999 74.9084 22.2374C74.9476 22.0748 74.9868 21.9122 75.0261 21.7498C75.0653 21.5872 75.1017 21.4554 75.1354 21.3545L76.1779 17.6805H77.3887ZM81.9086 19.1266V23.6835H81.0511L80.9081 23.095H80.8493C80.7596 23.2519 80.6447 23.3808 80.5046 23.4817C80.3645 23.5769 80.2103 23.647 80.0421 23.6919C79.874 23.7423 79.7002 23.7676 79.5209 23.7676C79.207 23.7676 78.9352 23.7087 78.7054 23.591C78.4756 23.4732 78.2962 23.2939 78.1673 23.0529C78.044 22.8063 77.9823 22.4896 77.9823 22.1028V19.1266H79.1005V21.8927C79.1005 22.2289 79.1565 22.4839 79.2686 22.6577C79.3864 22.8258 79.5713 22.91 79.8236 22.91C80.0758 22.91 80.2719 22.8511 80.4121 22.7334C80.5578 22.6101 80.6587 22.4335 80.7147 22.2037C80.7708 21.9739 80.7988 21.6909 80.7988 21.3545V19.1266H81.9086ZM78.4027 18.5969C78.4195 18.3951 78.4531 18.2214 78.5036 18.0756C78.5596 17.9243 78.6269 17.7982 78.7054 17.6973C78.7895 17.5964 78.8847 17.5207 78.9912 17.4703C79.1033 17.4198 79.2294 17.3946 79.3695 17.3946C79.4704 17.3946 79.5741 17.417 79.6807 17.4619C79.7928 17.5067 79.8992 17.5599 80.0001 17.6216C80.1066 17.6833 80.2075 17.7365 80.3028 17.7814C80.4037 17.8262 80.4989 17.8486 80.5886 17.8486C80.6727 17.8486 80.7484 17.8094 80.8156 17.7309C80.8829 17.6525 80.9305 17.5376 80.9585 17.3862H81.5135C81.4798 17.7786 81.3761 18.0784 81.2024 18.2859C81.0342 18.4876 80.8213 18.5884 80.5634 18.5884C80.4513 18.5884 80.3393 18.5661 80.2271 18.5212C80.1206 18.4764 80.0141 18.4231 79.9077 18.3615C79.8068 18.2999 79.7059 18.2466 79.605 18.2017C79.5097 18.157 79.4144 18.1345 79.3191 18.1345C79.2406 18.1345 79.1677 18.1737 79.1005 18.2522C79.0388 18.3251 78.9912 18.44 78.9576 18.5969H78.4027ZM85.611 19.0425C86.0873 19.0425 86.4633 19.1743 86.7376 19.4376C87.0119 19.7011 87.15 20.1271 87.15 20.7156V23.6835H86.0317V20.9258C86.0317 20.5839 85.9725 20.3289 85.8548 20.1607C85.7371 19.987 85.5521 19.9001 85.2999 19.9001C84.9244 19.9001 84.6694 20.0345 84.5348 20.3037C84.4003 20.567 84.3331 20.951 84.3331 21.4554V23.6835H83.2149V19.1266H84.0725L84.2322 19.7235H84.2742C84.3751 19.5666 84.4928 19.4376 84.6273 19.3367C84.7619 19.2358 84.9132 19.163 85.0813 19.1181C85.2495 19.0677 85.426 19.0425 85.611 19.0425ZM89.8603 19.0425C90.1404 19.0425 90.384 19.0986 90.5911 19.2107C90.7993 19.3227 90.9729 19.4909 91.1129 19.7151H91.1464L91.2471 19.1266H92.189V23.7171C92.189 24.1487 92.1103 24.5102 91.953 24.8016C91.7967 25.0987 91.5608 25.3229 91.2471 25.4742C90.9393 25.6256 90.547 25.7013 90.0704 25.7013C89.751 25.7013 89.4594 25.6788 89.1957 25.634C88.9377 25.5947 88.6912 25.5247 88.4562 25.4238V24.5494C88.6183 24.6223 88.7842 24.684 88.9521 24.7344C89.1257 24.7904 89.305 24.8324 89.4901 24.8605C89.6752 24.8885 89.8709 24.9025 90.079 24.9025C90.4041 24.9025 90.6506 24.8044 90.8184 24.6083C90.992 24.4121 91.0793 24.1318 91.0793 23.7676V23.6498C91.0793 23.5658 91.0822 23.4677 91.0879 23.3555C91.0985 23.2434 91.1071 23.1538 91.1129 23.0865H91.0793C90.945 23.3219 90.7762 23.4957 90.5748 23.6078C90.3725 23.7142 90.1289 23.7676 89.8431 23.7676C89.3328 23.7676 88.93 23.5601 88.6327 23.1453C88.3411 22.7306 88.1954 22.1532 88.1954 21.4134C88.1954 20.9146 88.2625 20.4886 88.3968 20.1354C88.532 19.7824 88.7219 19.5133 88.9684 19.3284C89.2206 19.1378 89.5179 19.0425 89.8603 19.0425ZM90.196 19.9084C90.0061 19.9084 89.8459 19.9673 89.7174 20.085C89.5937 20.1971 89.4987 20.3652 89.4316 20.5895C89.3635 20.8137 89.3299 21.0939 89.3299 21.4302C89.3299 21.9234 89.4028 22.2962 89.5486 22.5484C89.6944 22.8006 89.9131 22.9267 90.2046 22.9267C90.3725 22.9267 90.5154 22.9043 90.6333 22.8595C90.7513 22.8091 90.8463 22.7306 90.9191 22.6241C90.992 22.512 91.0486 22.3719 91.0879 22.2037C91.1263 22.03 91.1464 21.8226 91.1464 21.5815V21.4219C91.1464 21.0575 91.1129 20.766 91.0457 20.5475C90.9834 20.3232 90.8827 20.1607 90.7427 20.0598C90.6027 19.9589 90.4204 19.9084 90.196 19.9084ZM97.8552 23.6835H96.7197V18.5884H95.1564V17.6805H99.4108V18.5884H97.8552V23.6835ZM101.509 19.0425C102.059 19.0425 102.479 19.1714 102.77 19.4293C103.062 19.6815 103.208 20.0794 103.208 20.6231V23.6835H102.425L102.207 23.0529H102.173C102.05 23.2154 101.924 23.3528 101.795 23.4649C101.667 23.5713 101.518 23.647 101.349 23.6919C101.181 23.7423 100.98 23.7676 100.744 23.7676C100.492 23.7676 100.264 23.7171 100.063 23.6162C99.8616 23.5153 99.7014 23.3611 99.5835 23.1538C99.4665 22.9407 99.407 22.6745 99.407 22.355C99.407 21.8842 99.57 21.5311 99.8952 21.2957C100.22 21.0547 100.708 20.9229 101.358 20.9006L102.09 20.8754V20.6484C102.09 20.3569 102.027 20.1494 101.904 20.0262C101.781 19.9029 101.613 19.8412 101.4 19.8412C101.199 19.8412 100.993 19.8749 100.786 19.9421C100.585 20.0093 100.385 20.0879 100.19 20.1775L99.8443 19.4376C100.075 19.3199 100.33 19.2247 100.61 19.1518C100.89 19.0789 101.19 19.0425 101.509 19.0425ZM101.619 21.548C101.221 21.5648 100.943 21.646 100.786 21.7918C100.629 21.9319 100.551 22.1225 100.551 22.3635C100.551 22.5765 100.604 22.7306 100.71 22.8258C100.823 22.9212 100.968 22.9688 101.148 22.9688C101.411 22.9688 101.635 22.882 101.82 22.7082C102.005 22.5288 102.098 22.2654 102.098 21.9179V21.5311L101.619 21.548ZM101.273 17.1844C101.346 17.3078 101.436 17.4479 101.543 17.6048C101.655 17.7562 101.764 17.9047 101.871 18.0504C101.983 18.1905 102.081 18.3139 102.165 18.4203V18.5297H101.425C101.324 18.4568 101.206 18.3671 101.072 18.2606C100.943 18.1485 100.811 18.0308 100.677 17.9075C100.543 17.7842 100.416 17.6665 100.299 17.5544C100.187 17.4422 100.094 17.347 100.021 17.2686V17.1844H101.273ZM108.374 19.1266V23.6835H107.517L107.374 23.095H107.316C107.225 23.2519 107.11 23.3808 106.97 23.4817C106.83 23.5769 106.676 23.647 106.508 23.6919C106.34 23.7423 106.167 23.7676 105.986 23.7676C105.673 23.7676 105.401 23.7087 105.171 23.591C104.942 23.4732 104.762 23.2939 104.633 23.0529C104.51 22.8063 104.448 22.4896 104.448 22.1028V19.1266H105.566V21.8927C105.566 22.2289 105.623 22.4839 105.735 22.6577C105.852 22.8258 106.037 22.91 106.289 22.91C106.542 22.91 106.738 22.8511 106.878 22.7334C107.024 22.6101 107.125 22.4335 107.18 22.2037C107.237 21.9739 107.265 21.6909 107.265 21.3545V19.1266H108.374Z" fill="#444645"/>
<g clip-path="url(#clip0_676_115)">
<path d="M12.6584 13.1876V24.0116C12.6584 24.9924 13.4535 25.7875 14.4343 25.7875H30.5284C31.5092 25.7875 32.3043 24.9924 32.3043 24.0116V13.1896C32.3043 12.5595 31.9704 11.9764 31.4268 11.6577L23.363 6.92852C22.8073 6.60264 22.1188 6.60321 21.5637 6.93L13.5334 11.6572C12.9913 11.9764 12.6584 12.5586 12.6584 13.1876Z" fill="url(#paint0_linear_676_115)"/>
<path d="M5.96191 15.9512V24.0116C5.96191 24.9924 6.75701 25.7875 7.73781 25.7875H17.2833C18.2641 25.7875 19.0592 24.9924 19.0592 24.0116V20.3734C19.0592 19.6816 18.6574 19.0528 18.0298 18.762L8.48433 14.3398C7.30736 13.7946 5.96191 14.654 5.96191 15.9512Z" fill="url(#paint1_linear_676_115)"/>
<path d="M38.8784 15.9968V24.0572C38.8784 25.038 38.0833 25.8331 37.1025 25.8331H27.5571C26.5763 25.8331 25.7812 25.038 25.7812 24.0572V20.419C25.7812 19.7272 26.1829 19.0984 26.8105 18.8076L36.356 14.3853C37.533 13.8401 38.8784 14.6996 38.8784 15.9968Z" fill="url(#paint2_linear_676_115)"/>
<path d="M7.21987 12.6429C8.44587 12.6429 9.43975 11.649 9.43975 10.423C9.43975 9.197 8.44587 8.20312 7.21987 8.20312C5.99387 8.20312 5 9.197 5 10.423C5 11.649 5.99387 12.6429 7.21987 12.6429Z" fill="url(#paint3_radial_676_115)"/>
<path d="M37.8448 12.6429C36.6188 12.6429 35.625 11.649 35.625 10.423C35.625 9.197 36.6188 8.20312 37.8448 8.20312C39.0708 8.20312 40.0647 9.197 40.0647 10.423C40.0647 11.649 39.0708 12.6429 37.8448 12.6429Z" fill="url(#paint4_radial_676_115)"/>
<path d="M22.4629 5.1797C23.8932 5.1797 25.0528 4.02019 25.0528 2.58985C25.0528 1.15952 23.8932 0 22.4629 0C21.0326 0 19.873 1.15952 19.873 2.58985C19.873 4.02019 21.0326 5.1797 22.4629 5.1797Z" fill="url(#paint5_radial_676_115)"/>
</g>
<defs>
<linearGradient id="paint0_linear_676_115" x1="22.4998" y1="2.73435" x2="23.0467" y2="30.625" gradientUnits="userSpaceOnUse">
<stop stop-color="#4A647F"/>
<stop offset="0.841004" stop-color="#FBBE6E"/>
</linearGradient>
<linearGradient id="paint1_linear_676_115" x1="3.90633" y1="28.4375" x2="20.8595" y2="16.9531" gradientUnits="userSpaceOnUse">
<stop stop-color="#365371"/>
<stop offset="1" stop-color="#FBBE6E"/>
</linearGradient>
<linearGradient id="paint2_linear_676_115" x1="40.934" y1="28.483" x2="23.9809" y2="16.9987" gradientUnits="userSpaceOnUse">
<stop stop-color="#365371"/>
<stop offset="1" stop-color="#FBBE6E"/>
</linearGradient>
<radialGradient id="paint3_radial_676_115" cx="0" cy="0" r="1" gradientUnits="userSpaceOnUse" gradientTransform="translate(1.17188 7.46893) rotate(32.1957) scale(17.4487 17.4487)">
<stop stop-color="#365371"/>
<stop offset="1" stop-color="#FBBE6E"/>
</radialGradient>
<radialGradient id="paint4_radial_676_115" cx="0" cy="0" r="1" gradientUnits="userSpaceOnUse" gradientTransform="translate(43.8928 7.46893) rotate(147.804) scale(17.4487 17.4487)">
<stop stop-color="#365371"/>
<stop offset="1" stop-color="#FBBE6E"/>
</radialGradient>
<radialGradient id="paint5_radial_676_115" cx="0" cy="0" r="1" gradientUnits="userSpaceOnUse" gradientTransform="translate(22.4998) rotate(90) scale(12.0312)">
<stop stop-color="#365371"/>
<stop offset="1" stop-color="#FBBE6E"/>
</radialGradient>
<clipPath id="clip0_676_115">
<rect width="35" height="25.8245" fill="white" transform="translate(5)"/>
</clipPath>
</defs>
</svg>
